ply
format ascii 1.0
comment VCGLIB generated
element vertex 8
property float x
property float y
property float z
property float nx
property float ny
property float nz
property uchar red
property uchar green
property uchar blue
property uchar alpha
element face 0
property list uchar int vertex_indices
end_header
1 1 1 1.570796 1.570796 1.570796 0 0 0 255 
1 1 -1 1.570796 1.570796 -1.570796 0 0 0 255 
1 -1 1 1.570796 -1.570796 1.570796 0 0 0 255 
1 -1 -1 1.570796 -1.570796 -1.570796 0 0 0 255 
-1 1 1 -1.570796 1.570796 1.570796 0 0 0 255 
-1 1 -1 -1.570796 1.570796 -1.570796 0 0 0 255 
-1 -1 1 -1.570796 -1.570796 1.570796 0 0 0 255 
-1 -1 -1 -1.570796 -1.570796 -1.570796 0 0 0 255 
